<?xml version="1.0" encoding="UTF-8" standalone="no"?>
<!DOCTYPE svg PUBLIC "-//W3C//DTD SVG 1.1//EN" "http://www.w3.org/Graphics/SVG/1.1/DTD/svg11.dtd">
<svg width="100%" height="100%" viewBox="0 0 650 900" version="1.1" xmlns="http://www.w3.org/2000/svg">
    <path
      d="M77.277,324.368C62.744,320.241 49.424,312.124 39.011,300.758C23.276,283.582 15.729,261.32 17.768,238.078L17.768,238.074C17.935,236.178 18.384,234.32 19.1,232.56L36.892,188.753C50.665,154.845 80.325,130.398 116.238,123.361L527.488,42.778C532.381,41.819 537.373,41.335 542.324,41.335C579.074,41.335 610.783,67.563 617.714,103.704L631.046,173.211C635.384,195.835 630.337,218.571 616.841,237.233C603.343,255.895 583.33,267.803 560.49,270.768C560.475,270.77 560.46,270.772 560.445,270.774C560.445,270.774 551.917,271.834 551.918,271.835C566.38,286.267 576.273,305.39 579.014,326.935L631.022,735.538C634.985,766.676 625.358,798.044 604.612,821.6C583.865,845.155 553.963,858.665 522.572,858.665L415.201,858.665C358.804,858.665 312.922,812.781 312.922,756.387L312.922,368.125C312.922,341.744 322.841,317.076 339.534,298.253C339.534,298.253 209.196,314.467 209.196,314.467C211.804,319.843 213.397,325.817 213.718,332.149C213.718,332.149 236.336,777.686 236.554,782C237.577,799.429 231.515,816.115 219.469,828.89C207.425,841.666 191.121,848.701 173.561,848.701L94.048,848.701C55.951,848.701 24.954,817.707 24.954,779.607C24.954,779.301 24.96,779 24.974,778.7L43.316,392.7C44.607,365.562 57.23,341.033 77.277,324.368ZM198.398,784.074L175.554,334.09C175.347,330.033 172.026,326.843 167.976,326.843C167.103,326.843 166.233,327.004 165.386,327.307L118.937,343.927C97.278,351.677 82.576,371.534 81.483,394.513C81.46,394.996 63.166,780.008 63.166,780.02C63.388,796.86 77.153,810.491 94.045,810.491L173.558,810.491C180.484,810.491 186.913,807.717 191.666,802.678C196.416,797.639 198.808,791.057 198.402,784.143C198.401,784.12 198.399,784.097 198.398,784.074ZM67.187,274.951C76.769,285.408 90.945,290.676 105.077,288.914L105.08,288.914C105.08,288.914 555.644,232.864 555.644,232.864C567.873,231.273 578.624,224.869 585.876,214.84C593.137,204.804 595.849,192.574 593.517,180.408L580.185,110.902C576.703,92.738 560.782,79.547 542.324,79.547C539.831,79.547 537.314,79.793 534.841,80.279L534.835,80.281L123.585,160.864C100.371,165.412 81.197,181.215 72.295,203.131C72.295,203.131 55.679,244.044 55.679,244.046C55.33,255.524 59.366,266.414 67.187,274.951ZM575.935,796.348C589.43,781.024 595.693,760.621 593.113,740.366L541.108,331.762C537.518,303.558 513.423,282.279 485.05,282.279C479.99,282.279 474.912,282.97 469.956,284.333L400.423,303.453C371.403,311.437 351.132,338.032 351.132,368.13L351.132,756.389C351.132,791.714 379.873,820.455 415.198,820.455L522.57,820.455C542.988,820.455 562.439,811.669 575.935,796.348Z"
      fill="currentColor"
    />
</svg>
